<mxfile host="app.diagrams.net" modified="2024-05-28T10:04:11.680Z" agent="Mozilla/5.0 (Windows NT 10.0; Win64; x64) AppleWebKit/537.36 (KHTML, like Gecko) Chrome/125.0.0.0 Safari/537.36" etag="JYZgrd7TsNi2Yf-PrVVl" version="24.4.8" type="github">
  <diagram name="Pagina-1" id="THTmOEnDuf4OOfOf2mZq">
    <mxGraphModel dx="1977" dy="502" grid="1" gridSize="10" guides="1" tooltips="1" connect="1" arrows="1" fold="1" page="1" pageScale="1" pageWidth="827" pageHeight="1169" math="0" shadow="0">
      <root>
        <mxCell id="0" />
        <mxCell id="1" parent="0" />
        <mxCell id="IIubhp3aX0ed0kJfjFSU-3" value="" style="edgeStyle=orthogonalEdgeStyle;rounded=0;orthogonalLoop=1;jettySize=auto;html=1;exitX=0.5;exitY=1;exitDx=0;exitDy=0;" edge="1" parent="1" source="IIubhp3aX0ed0kJfjFSU-1" target="IIubhp3aX0ed0kJfjFSU-2">
          <mxGeometry relative="1" as="geometry" />
        </mxCell>
        <mxCell id="IIubhp3aX0ed0kJfjFSU-1" value="start programma" style="ellipse;whiteSpace=wrap;html=1;" vertex="1" parent="1">
          <mxGeometry x="294" y="40" width="166" height="80" as="geometry" />
        </mxCell>
        <mxCell id="IIubhp3aX0ed0kJfjFSU-5" value="" style="edgeStyle=orthogonalEdgeStyle;rounded=0;orthogonalLoop=1;jettySize=auto;html=1;" edge="1" parent="1" source="IIubhp3aX0ed0kJfjFSU-2" target="IIubhp3aX0ed0kJfjFSU-4">
          <mxGeometry relative="1" as="geometry" />
        </mxCell>
        <mxCell id="IIubhp3aX0ed0kJfjFSU-2" value="hoeveel_bolletjes wilt u = int(input())" style="shape=parallelogram;perimeter=parallelogramPerimeter;whiteSpace=wrap;html=1;fixedSize=1;" vertex="1" parent="1">
          <mxGeometry x="292" y="200" width="170" height="80" as="geometry" />
        </mxCell>
        <mxCell id="IIubhp3aX0ed0kJfjFSU-6" style="edgeStyle=orthogonalEdgeStyle;rounded=0;orthogonalLoop=1;jettySize=auto;html=1;exitX=1;exitY=0.5;exitDx=0;exitDy=0;" edge="1" parent="1" source="IIubhp3aX0ed0kJfjFSU-4">
          <mxGeometry relative="1" as="geometry">
            <mxPoint x="560" y="360" as="targetPoint" />
          </mxGeometry>
        </mxCell>
        <mxCell id="IIubhp3aX0ed0kJfjFSU-13" value="else" style="edgeLabel;html=1;align=center;verticalAlign=middle;resizable=0;points=[];" vertex="1" connectable="0" parent="IIubhp3aX0ed0kJfjFSU-6">
          <mxGeometry x="0.1361" y="2" relative="1" as="geometry">
            <mxPoint as="offset" />
          </mxGeometry>
        </mxCell>
        <mxCell id="IIubhp3aX0ed0kJfjFSU-7" style="edgeStyle=orthogonalEdgeStyle;rounded=0;orthogonalLoop=1;jettySize=auto;html=1;exitX=0;exitY=0.5;exitDx=0;exitDy=0;" edge="1" parent="1" source="IIubhp3aX0ed0kJfjFSU-4">
          <mxGeometry relative="1" as="geometry">
            <mxPoint x="200" y="360" as="targetPoint" />
          </mxGeometry>
        </mxCell>
        <mxCell id="IIubhp3aX0ed0kJfjFSU-10" value="&amp;gt;8" style="edgeLabel;html=1;align=center;verticalAlign=middle;resizable=0;points=[];" vertex="1" connectable="0" parent="IIubhp3aX0ed0kJfjFSU-7">
          <mxGeometry x="0.0184" y="-2" relative="1" as="geometry">
            <mxPoint as="offset" />
          </mxGeometry>
        </mxCell>
        <mxCell id="IIubhp3aX0ed0kJfjFSU-21" style="edgeStyle=orthogonalEdgeStyle;rounded=0;orthogonalLoop=1;jettySize=auto;html=1;exitX=1;exitY=1;exitDx=0;exitDy=0;entryX=1;entryY=0.5;entryDx=0;entryDy=0;" edge="1" parent="1" source="IIubhp3aX0ed0kJfjFSU-4" target="IIubhp3aX0ed0kJfjFSU-16">
          <mxGeometry relative="1" as="geometry">
            <mxPoint x="480" y="640" as="targetPoint" />
            <Array as="points">
              <mxPoint x="480" y="380" />
              <mxPoint x="480" y="640" />
            </Array>
          </mxGeometry>
        </mxCell>
        <mxCell id="IIubhp3aX0ed0kJfjFSU-22" value="&amp;gt;=4 and &amp;lt;=8" style="edgeLabel;html=1;align=center;verticalAlign=middle;resizable=0;points=[];" vertex="1" connectable="0" parent="IIubhp3aX0ed0kJfjFSU-21">
          <mxGeometry x="0.2066" y="-4" relative="1" as="geometry">
            <mxPoint x="4" as="offset" />
          </mxGeometry>
        </mxCell>
        <mxCell id="IIubhp3aX0ed0kJfjFSU-36" style="edgeStyle=orthogonalEdgeStyle;rounded=0;orthogonalLoop=1;jettySize=auto;html=1;exitX=0;exitY=1;exitDx=0;exitDy=0;" edge="1" parent="1" source="IIubhp3aX0ed0kJfjFSU-4">
          <mxGeometry relative="1" as="geometry">
            <mxPoint x="260" y="450" as="targetPoint" />
          </mxGeometry>
        </mxCell>
        <mxCell id="IIubhp3aX0ed0kJfjFSU-45" value="&amp;gt;=1 and &amp;lt;=3" style="edgeLabel;html=1;align=center;verticalAlign=middle;resizable=0;points=[];" vertex="1" connectable="0" parent="IIubhp3aX0ed0kJfjFSU-36">
          <mxGeometry x="0.4015" relative="1" as="geometry">
            <mxPoint as="offset" />
          </mxGeometry>
        </mxCell>
        <mxCell id="IIubhp3aX0ed0kJfjFSU-4" value="if hoeveel bolletjes" style="rhombus;whiteSpace=wrap;html=1;" vertex="1" parent="1">
          <mxGeometry x="337" y="320" width="80" height="80" as="geometry" />
        </mxCell>
        <mxCell id="IIubhp3aX0ed0kJfjFSU-58" style="edgeStyle=orthogonalEdgeStyle;rounded=0;orthogonalLoop=1;jettySize=auto;html=1;exitX=0.5;exitY=0;exitDx=0;exitDy=0;entryX=0;entryY=0.5;entryDx=0;entryDy=0;" edge="1" parent="1" source="IIubhp3aX0ed0kJfjFSU-12" target="IIubhp3aX0ed0kJfjFSU-2">
          <mxGeometry relative="1" as="geometry">
            <Array as="points">
              <mxPoint x="140" y="240" />
            </Array>
          </mxGeometry>
        </mxCell>
        <mxCell id="IIubhp3aX0ed0kJfjFSU-12" value="print(&#39;Sorry zulke grote bakken hebben we niet&#39;)" style="rounded=0;whiteSpace=wrap;html=1;strokeColor=#000000;" vertex="1" parent="1">
          <mxGeometry x="80" y="330" width="120" height="60" as="geometry" />
        </mxCell>
        <mxCell id="IIubhp3aX0ed0kJfjFSU-52" style="edgeStyle=orthogonalEdgeStyle;rounded=0;orthogonalLoop=1;jettySize=auto;html=1;exitX=0.5;exitY=0;exitDx=0;exitDy=0;entryX=1;entryY=0.5;entryDx=0;entryDy=0;" edge="1" parent="1" source="IIubhp3aX0ed0kJfjFSU-14" target="IIubhp3aX0ed0kJfjFSU-2">
          <mxGeometry relative="1" as="geometry">
            <Array as="points">
              <mxPoint x="620" y="240" />
            </Array>
          </mxGeometry>
        </mxCell>
        <mxCell id="IIubhp3aX0ed0kJfjFSU-14" value="print(&#39;Sorry dat begrijp ik niet&#39;)" style="rounded=0;whiteSpace=wrap;html=1;strokeColor=#000000;" vertex="1" parent="1">
          <mxGeometry x="560" y="330" width="120" height="60" as="geometry" />
        </mxCell>
        <mxCell id="IIubhp3aX0ed0kJfjFSU-24" style="edgeStyle=orthogonalEdgeStyle;rounded=0;orthogonalLoop=1;jettySize=auto;html=1;entryX=0.5;entryY=0;entryDx=0;entryDy=0;" edge="1" parent="1" source="IIubhp3aX0ed0kJfjFSU-16" target="IIubhp3aX0ed0kJfjFSU-25">
          <mxGeometry relative="1" as="geometry">
            <mxPoint x="377" y="680" as="targetPoint" />
          </mxGeometry>
        </mxCell>
        <mxCell id="IIubhp3aX0ed0kJfjFSU-16" value="&lt;div&gt;welke smaak wilt u = input()&lt;/div&gt;" style="shape=parallelogram;perimeter=parallelogramPerimeter;whiteSpace=wrap;html=1;fixedSize=1;strokeColor=#000000;" vertex="1" parent="1">
          <mxGeometry x="277" y="600" width="200" height="80" as="geometry" />
        </mxCell>
        <mxCell id="IIubhp3aX0ed0kJfjFSU-26" style="edgeStyle=orthogonalEdgeStyle;rounded=0;orthogonalLoop=1;jettySize=auto;html=1;exitX=1;exitY=0.5;exitDx=0;exitDy=0;entryX=1;entryY=0.5;entryDx=0;entryDy=0;" edge="1" parent="1" source="IIubhp3aX0ed0kJfjFSU-25" target="IIubhp3aX0ed0kJfjFSU-46">
          <mxGeometry relative="1" as="geometry">
            <mxPoint x="480" y="920" as="targetPoint" />
            <Array as="points">
              <mxPoint x="500" y="800" />
              <mxPoint x="500" y="950" />
            </Array>
          </mxGeometry>
        </mxCell>
        <mxCell id="IIubhp3aX0ed0kJfjFSU-31" value="aardbij" style="edgeLabel;html=1;align=center;verticalAlign=middle;resizable=0;points=[];" vertex="1" connectable="0" parent="IIubhp3aX0ed0kJfjFSU-26">
          <mxGeometry x="0.2727" y="1" relative="1" as="geometry">
            <mxPoint as="offset" />
          </mxGeometry>
        </mxCell>
        <mxCell id="IIubhp3aX0ed0kJfjFSU-28" style="edgeStyle=orthogonalEdgeStyle;rounded=0;orthogonalLoop=1;jettySize=auto;html=1;exitX=0;exitY=0.5;exitDx=0;exitDy=0;entryX=0;entryY=0.5;entryDx=0;entryDy=0;" edge="1" parent="1" source="IIubhp3aX0ed0kJfjFSU-25" target="IIubhp3aX0ed0kJfjFSU-46">
          <mxGeometry relative="1" as="geometry">
            <mxPoint x="280" y="920" as="targetPoint" />
            <Array as="points">
              <mxPoint x="260" y="800" />
              <mxPoint x="260" y="950" />
            </Array>
          </mxGeometry>
        </mxCell>
        <mxCell id="IIubhp3aX0ed0kJfjFSU-34" value="vanille" style="edgeLabel;html=1;align=center;verticalAlign=middle;resizable=0;points=[];" vertex="1" connectable="0" parent="IIubhp3aX0ed0kJfjFSU-28">
          <mxGeometry x="0.3423" y="2" relative="1" as="geometry">
            <mxPoint as="offset" />
          </mxGeometry>
        </mxCell>
        <mxCell id="IIubhp3aX0ed0kJfjFSU-29" style="edgeStyle=orthogonalEdgeStyle;rounded=0;orthogonalLoop=1;jettySize=auto;html=1;exitX=1;exitY=1;exitDx=0;exitDy=0;" edge="1" parent="1" source="IIubhp3aX0ed0kJfjFSU-25">
          <mxGeometry relative="1" as="geometry">
            <mxPoint x="397" y="920" as="targetPoint" />
          </mxGeometry>
        </mxCell>
        <mxCell id="IIubhp3aX0ed0kJfjFSU-32" value="munt" style="edgeLabel;html=1;align=center;verticalAlign=middle;resizable=0;points=[];" vertex="1" connectable="0" parent="IIubhp3aX0ed0kJfjFSU-29">
          <mxGeometry x="-0.2329" relative="1" as="geometry">
            <mxPoint y="11" as="offset" />
          </mxGeometry>
        </mxCell>
        <mxCell id="IIubhp3aX0ed0kJfjFSU-30" style="edgeStyle=orthogonalEdgeStyle;rounded=0;orthogonalLoop=1;jettySize=auto;html=1;exitX=0;exitY=1;exitDx=0;exitDy=0;" edge="1" parent="1" source="IIubhp3aX0ed0kJfjFSU-25">
          <mxGeometry relative="1" as="geometry">
            <mxPoint x="357" y="920" as="targetPoint" />
          </mxGeometry>
        </mxCell>
        <mxCell id="IIubhp3aX0ed0kJfjFSU-33" value="chocola" style="edgeLabel;html=1;align=center;verticalAlign=middle;resizable=0;points=[];" vertex="1" connectable="0" parent="IIubhp3aX0ed0kJfjFSU-30">
          <mxGeometry x="-0.1335" y="-2" relative="1" as="geometry">
            <mxPoint y="7" as="offset" />
          </mxGeometry>
        </mxCell>
        <mxCell id="IIubhp3aX0ed0kJfjFSU-48" style="edgeStyle=orthogonalEdgeStyle;rounded=0;orthogonalLoop=1;jettySize=auto;html=1;exitX=1;exitY=0;exitDx=0;exitDy=0;entryX=0;entryY=0.5;entryDx=0;entryDy=0;" edge="1" parent="1" source="IIubhp3aX0ed0kJfjFSU-25" target="IIubhp3aX0ed0kJfjFSU-50">
          <mxGeometry relative="1" as="geometry">
            <mxPoint x="500" y="779.7777777777778" as="targetPoint" />
          </mxGeometry>
        </mxCell>
        <mxCell id="IIubhp3aX0ed0kJfjFSU-49" value="else" style="edgeLabel;html=1;align=center;verticalAlign=middle;resizable=0;points=[];" vertex="1" connectable="0" parent="IIubhp3aX0ed0kJfjFSU-48">
          <mxGeometry x="-0.0665" y="1" relative="1" as="geometry">
            <mxPoint x="8" as="offset" />
          </mxGeometry>
        </mxCell>
        <mxCell id="IIubhp3aX0ed0kJfjFSU-25" value="if smaken" style="rhombus;whiteSpace=wrap;html=1;" vertex="1" parent="1">
          <mxGeometry x="337" y="760" width="80" height="80" as="geometry" />
        </mxCell>
        <mxCell id="IIubhp3aX0ed0kJfjFSU-40" style="edgeStyle=orthogonalEdgeStyle;rounded=0;orthogonalLoop=1;jettySize=auto;html=1;exitX=0;exitY=0.5;exitDx=0;exitDy=0;entryX=0.5;entryY=0;entryDx=0;entryDy=0;" edge="1" parent="1" source="IIubhp3aX0ed0kJfjFSU-38" target="IIubhp3aX0ed0kJfjFSU-39">
          <mxGeometry relative="1" as="geometry" />
        </mxCell>
        <mxCell id="IIubhp3aX0ed0kJfjFSU-38" value="bakje_of_hoorntje&lt;div&gt;= input()&lt;/div&gt;" style="shape=parallelogram;perimeter=parallelogramPerimeter;whiteSpace=wrap;html=1;fixedSize=1;" vertex="1" parent="1">
          <mxGeometry x="190" y="450" width="130" height="60" as="geometry" />
        </mxCell>
        <mxCell id="IIubhp3aX0ed0kJfjFSU-41" style="edgeStyle=orthogonalEdgeStyle;rounded=0;orthogonalLoop=1;jettySize=auto;html=1;exitX=1;exitY=0.5;exitDx=0;exitDy=0;entryX=0.5;entryY=0;entryDx=0;entryDy=0;" edge="1" parent="1" source="IIubhp3aX0ed0kJfjFSU-39" target="IIubhp3aX0ed0kJfjFSU-16">
          <mxGeometry relative="1" as="geometry" />
        </mxCell>
        <mxCell id="IIubhp3aX0ed0kJfjFSU-44" value="bakje" style="edgeLabel;html=1;align=center;verticalAlign=middle;resizable=0;points=[];" vertex="1" connectable="0" parent="IIubhp3aX0ed0kJfjFSU-41">
          <mxGeometry x="-0.2928" y="4" relative="1" as="geometry">
            <mxPoint as="offset" />
          </mxGeometry>
        </mxCell>
        <mxCell id="IIubhp3aX0ed0kJfjFSU-42" style="edgeStyle=orthogonalEdgeStyle;rounded=0;orthogonalLoop=1;jettySize=auto;html=1;exitX=0.5;exitY=1;exitDx=0;exitDy=0;entryX=0;entryY=0.5;entryDx=0;entryDy=0;" edge="1" parent="1" source="IIubhp3aX0ed0kJfjFSU-39" target="IIubhp3aX0ed0kJfjFSU-16">
          <mxGeometry relative="1" as="geometry" />
        </mxCell>
        <mxCell id="IIubhp3aX0ed0kJfjFSU-43" value="hoorntje" style="edgeLabel;html=1;align=center;verticalAlign=middle;resizable=0;points=[];" vertex="1" connectable="0" parent="IIubhp3aX0ed0kJfjFSU-42">
          <mxGeometry x="-0.0332" y="2" relative="1" as="geometry">
            <mxPoint as="offset" />
          </mxGeometry>
        </mxCell>
        <mxCell id="IIubhp3aX0ed0kJfjFSU-53" style="edgeStyle=orthogonalEdgeStyle;rounded=0;orthogonalLoop=1;jettySize=auto;html=1;exitX=0;exitY=0.5;exitDx=0;exitDy=0;" edge="1" parent="1" source="IIubhp3aX0ed0kJfjFSU-39">
          <mxGeometry relative="1" as="geometry">
            <mxPoint x="50" y="579.7777777777778" as="targetPoint" />
          </mxGeometry>
        </mxCell>
        <mxCell id="IIubhp3aX0ed0kJfjFSU-56" value="else" style="edgeLabel;html=1;align=center;verticalAlign=middle;resizable=0;points=[];" vertex="1" connectable="0" parent="IIubhp3aX0ed0kJfjFSU-53">
          <mxGeometry x="-0.2235" y="2" relative="1" as="geometry">
            <mxPoint x="1" as="offset" />
          </mxGeometry>
        </mxCell>
        <mxCell id="IIubhp3aX0ed0kJfjFSU-39" value="if hoorntje of bakje" style="rhombus;whiteSpace=wrap;html=1;" vertex="1" parent="1">
          <mxGeometry x="100" y="540" width="80" height="80" as="geometry" />
        </mxCell>
        <mxCell id="IIubhp3aX0ed0kJfjFSU-59" style="edgeStyle=orthogonalEdgeStyle;rounded=0;orthogonalLoop=1;jettySize=auto;html=1;exitX=0.5;exitY=1;exitDx=0;exitDy=0;" edge="1" parent="1" source="IIubhp3aX0ed0kJfjFSU-46" target="IIubhp3aX0ed0kJfjFSU-60">
          <mxGeometry relative="1" as="geometry">
            <mxPoint x="377.2962962962961" y="1040" as="targetPoint" />
          </mxGeometry>
        </mxCell>
        <mxCell id="IIubhp3aX0ed0kJfjFSU-46" value="toppings = input()" style="shape=parallelogram;perimeter=parallelogramPerimeter;whiteSpace=wrap;html=1;fixedSize=1;" vertex="1" parent="1">
          <mxGeometry x="317" y="920" width="120" height="60" as="geometry" />
        </mxCell>
        <mxCell id="IIubhp3aX0ed0kJfjFSU-51" style="edgeStyle=orthogonalEdgeStyle;rounded=0;orthogonalLoop=1;jettySize=auto;html=1;exitX=0.5;exitY=0;exitDx=0;exitDy=0;entryX=1;entryY=0.75;entryDx=0;entryDy=0;" edge="1" parent="1" source="IIubhp3aX0ed0kJfjFSU-50" target="IIubhp3aX0ed0kJfjFSU-16">
          <mxGeometry relative="1" as="geometry">
            <Array as="points">
              <mxPoint x="590" y="660" />
              <mxPoint x="463" y="660" />
            </Array>
          </mxGeometry>
        </mxCell>
        <mxCell id="IIubhp3aX0ed0kJfjFSU-50" value="sorry dat begrijp ik niet" style="rounded=0;whiteSpace=wrap;html=1;" vertex="1" parent="1">
          <mxGeometry x="530" y="750" width="120" height="60" as="geometry" />
        </mxCell>
        <mxCell id="IIubhp3aX0ed0kJfjFSU-57" style="edgeStyle=orthogonalEdgeStyle;rounded=0;orthogonalLoop=1;jettySize=auto;html=1;exitX=0.5;exitY=0;exitDx=0;exitDy=0;entryX=0.25;entryY=0;entryDx=0;entryDy=0;" edge="1" parent="1" source="IIubhp3aX0ed0kJfjFSU-54" target="IIubhp3aX0ed0kJfjFSU-38">
          <mxGeometry relative="1" as="geometry" />
        </mxCell>
        <mxCell id="IIubhp3aX0ed0kJfjFSU-54" value="sorry dat begrijp ik niet" style="rounded=0;whiteSpace=wrap;html=1;" vertex="1" parent="1">
          <mxGeometry x="-70" y="550" width="120" height="60" as="geometry" />
        </mxCell>
        <mxCell id="IIubhp3aX0ed0kJfjFSU-61" style="edgeStyle=orthogonalEdgeStyle;rounded=0;orthogonalLoop=1;jettySize=auto;html=1;exitX=0;exitY=0.5;exitDx=0;exitDy=0;entryX=0;entryY=0.5;entryDx=0;entryDy=0;" edge="1" parent="1" source="IIubhp3aX0ed0kJfjFSU-60" target="IIubhp3aX0ed0kJfjFSU-74">
          <mxGeometry relative="1" as="geometry">
            <mxPoint x="260" y="1200" as="targetPoint" />
            <Array as="points">
              <mxPoint x="260" y="1060" />
              <mxPoint x="260" y="1270" />
            </Array>
          </mxGeometry>
        </mxCell>
        <mxCell id="IIubhp3aX0ed0kJfjFSU-67" value="slagroom" style="edgeLabel;html=1;align=center;verticalAlign=middle;resizable=0;points=[];" vertex="1" connectable="0" parent="IIubhp3aX0ed0kJfjFSU-61">
          <mxGeometry x="-0.6026" y="1" relative="1" as="geometry">
            <mxPoint x="-13" y="89" as="offset" />
          </mxGeometry>
        </mxCell>
        <mxCell id="IIubhp3aX0ed0kJfjFSU-62" style="edgeStyle=orthogonalEdgeStyle;rounded=0;orthogonalLoop=1;jettySize=auto;html=1;exitX=0.646;exitY=0.168;exitDx=0;exitDy=0;exitPerimeter=0;entryX=0;entryY=0.5;entryDx=0;entryDy=0;" edge="1" parent="1" source="IIubhp3aX0ed0kJfjFSU-60" target="IIubhp3aX0ed0kJfjFSU-65">
          <mxGeometry relative="1" as="geometry">
            <mxPoint x="500" y="1060" as="targetPoint" />
          </mxGeometry>
        </mxCell>
        <mxCell id="IIubhp3aX0ed0kJfjFSU-64" value="else" style="edgeLabel;html=1;align=center;verticalAlign=middle;resizable=0;points=[];" vertex="1" connectable="0" parent="IIubhp3aX0ed0kJfjFSU-62">
          <mxGeometry x="-0.1447" y="1" relative="1" as="geometry">
            <mxPoint as="offset" />
          </mxGeometry>
        </mxCell>
        <mxCell id="IIubhp3aX0ed0kJfjFSU-69" style="edgeStyle=orthogonalEdgeStyle;rounded=0;orthogonalLoop=1;jettySize=auto;html=1;exitX=1;exitY=1;exitDx=0;exitDy=0;entryX=0.709;entryY=0.004;entryDx=0;entryDy=0;entryPerimeter=0;" edge="1" parent="1" source="IIubhp3aX0ed0kJfjFSU-60" target="IIubhp3aX0ed0kJfjFSU-74">
          <mxGeometry relative="1" as="geometry">
            <mxPoint x="440" y="1200" as="targetPoint" />
            <Array as="points">
              <mxPoint x="440" y="1080" />
              <mxPoint x="440" y="1230" />
              <mxPoint x="405" y="1230" />
            </Array>
          </mxGeometry>
        </mxCell>
        <mxCell id="IIubhp3aX0ed0kJfjFSU-70" value="caramel saus" style="edgeLabel;html=1;align=center;verticalAlign=middle;resizable=0;points=[];" vertex="1" connectable="0" parent="IIubhp3aX0ed0kJfjFSU-69">
          <mxGeometry x="0.0568" relative="1" as="geometry">
            <mxPoint as="offset" />
          </mxGeometry>
        </mxCell>
        <mxCell id="IIubhp3aX0ed0kJfjFSU-72" style="edgeStyle=orthogonalEdgeStyle;rounded=0;orthogonalLoop=1;jettySize=auto;html=1;exitX=0;exitY=1;exitDx=0;exitDy=0;entryX=0.25;entryY=0;entryDx=0;entryDy=0;" edge="1" parent="1" source="IIubhp3aX0ed0kJfjFSU-60" target="IIubhp3aX0ed0kJfjFSU-74">
          <mxGeometry relative="1" as="geometry">
            <mxPoint x="310" y="1200" as="targetPoint" />
            <Array as="points">
              <mxPoint x="320" y="1080" />
              <mxPoint x="320" y="1230" />
              <mxPoint x="350" y="1230" />
            </Array>
          </mxGeometry>
        </mxCell>
        <mxCell id="IIubhp3aX0ed0kJfjFSU-73" value="sprinkels" style="edgeLabel;html=1;align=center;verticalAlign=middle;resizable=0;points=[];" vertex="1" connectable="0" parent="IIubhp3aX0ed0kJfjFSU-72">
          <mxGeometry x="0.1889" y="1" relative="1" as="geometry">
            <mxPoint as="offset" />
          </mxGeometry>
        </mxCell>
        <mxCell id="IIubhp3aX0ed0kJfjFSU-75" style="edgeStyle=orthogonalEdgeStyle;rounded=0;orthogonalLoop=1;jettySize=auto;html=1;exitX=1;exitY=0.5;exitDx=0;exitDy=0;entryX=1;entryY=0.5;entryDx=0;entryDy=0;" edge="1" parent="1" source="IIubhp3aX0ed0kJfjFSU-60" target="IIubhp3aX0ed0kJfjFSU-74">
          <mxGeometry relative="1" as="geometry">
            <mxPoint x="500" y="1200" as="targetPoint" />
            <Array as="points">
              <mxPoint x="500" y="1060" />
              <mxPoint x="500" y="1270" />
            </Array>
          </mxGeometry>
        </mxCell>
        <mxCell id="IIubhp3aX0ed0kJfjFSU-76" value="geen" style="edgeLabel;html=1;align=center;verticalAlign=middle;resizable=0;points=[];" vertex="1" connectable="0" parent="IIubhp3aX0ed0kJfjFSU-75">
          <mxGeometry x="0.1232" y="1" relative="1" as="geometry">
            <mxPoint as="offset" />
          </mxGeometry>
        </mxCell>
        <mxCell id="IIubhp3aX0ed0kJfjFSU-60" value="if toppings" style="rhombus;whiteSpace=wrap;html=1;" vertex="1" parent="1">
          <mxGeometry x="336.99629629629607" y="1020" width="80" height="80" as="geometry" />
        </mxCell>
        <mxCell id="IIubhp3aX0ed0kJfjFSU-66" style="edgeStyle=orthogonalEdgeStyle;rounded=0;orthogonalLoop=1;jettySize=auto;html=1;entryX=1;entryY=0.75;entryDx=0;entryDy=0;" edge="1" parent="1" source="IIubhp3aX0ed0kJfjFSU-65" target="IIubhp3aX0ed0kJfjFSU-46">
          <mxGeometry relative="1" as="geometry">
            <Array as="points">
              <mxPoint x="560" y="961" />
            </Array>
          </mxGeometry>
        </mxCell>
        <mxCell id="IIubhp3aX0ed0kJfjFSU-65" value="sorry dat begrijp ik niet" style="rounded=0;whiteSpace=wrap;html=1;" vertex="1" parent="1">
          <mxGeometry x="500" y="990" width="120" height="60" as="geometry" />
        </mxCell>
        <mxCell id="IIubhp3aX0ed0kJfjFSU-74" value="print(bonnetje)" style="rounded=0;whiteSpace=wrap;html=1;" vertex="1" parent="1">
          <mxGeometry x="320" y="1240" width="120" height="60" as="geometry" />
        </mxCell>
      </root>
    </mxGraphModel>
  </diagram>
</mxfile>
